# xmcd
#
# Track frame offsets:
#	150
#	16367
#	28412
#	36615
#	51610
#	69375
#	83312
#	96735
#	111192
#	121592
#	134107
#	148590
#	162842
#	175805
#	188830
#	203917
#	217145
#	227085
#	240697
#	252775
#
# Disc length: 3555 seconds
#
# Revision: 1
# Processed by: cddbd v1.5.2PL0 Copyright (c) Steve Scherf et al.
# Submitted via: audiograbber 1.83.01
#
DISCID=2d0de114
DTITLE=Georg Ots - Mauno Kuusisto Ja Georg Ots [CD3)
DYEAR=2003
DGENRE=Oldies
TTITLE0=Saarenmaan Valssi
TTITLE1=Kalastajan Laulu
TTITLE2=Jos Tulet Vaimoksi Minulle
TTITLE3=Heijastus
TTITLE4=Äidin Sydän
TTITLE5=Kauniit Muistot
TTITLE6=Kyllikki
TTITLE7=Muistojen Kultaiset ruusut
TTITLE8=Rakkauden Vala
TTITLE9=Valssi Kanssasi
TTITLE10=Unohtumaton Ilta
TTITLE11=Metsäkukkia
TTITLE12=Ilta Volgalla
TTITLE13=Mustanmeren Valssi
TTITLE14=Rakastan Sinua, Elämä
TTITLE15=Katselen Yli Virran
TTITLE16=Yön Saapuessa
TTITLE17=Älä Kiiruhda
TTITLE18=Uudellen Jos Luokses Tulla Voisin
TTITLE19=Moskovan Valot
EXTD=TR.
EXTT0=
EXTT1=
EXTT2=
EXTT3=
EXTT4=
EXTT5=
EXTT6=
EXTT7=
EXTT8=
EXTT9=
EXTT10=
EXTT11=
EXTT12=
EXTT13=
EXTT14=
EXTT15=
EXTT16=
EXTT17=
EXTT18=
EXTT19=
PLAYORDER=
